{
  "source": "C:\\Users\\Peter\\Desktop\\stuff\\MIUN\\quantitative_research\\video_compression\\videos\\BVI-HD\\BVI-HD_CDVL_videos\\ORIG\\Typing_1920x1080_60fps.mp4",
  "output": "C:\\Users\\Peter\\Desktop\\stuff\\MIUN\\quantitative_research\\video_compression\\compressed_videos\\BVI-HD\\vp9\\3\\Typing_1920x1080_60fps_vp9.webm",
  "codec": "vp9",
  "ok": "Input #0, mov,mp4,m4a,3gp,3g2,mj2, from 'C:\\Users\\Peter\\Desktop\\stuff\\MIUN\\quantitative_research\\video_compression\\videos\\BVI-HD\\BVI-HD_CDVL_videos\\ORIG\\Typing_1920x1080_60fps.mp4':\n  Metadata:\n    major_brand     : isom\n    minor_version   : 512\n    compatible_brands: isomiso2avc1mp41\n    encoder         : Lavf54.28.101\n  Duration: 00:00:05.00, start: 0.000000, bitrate: 203453 kb/s\n  Stream #0:0[0x1](und): Video: h264 (High 4:4:4 Predictive) (avc1 / 0x31637661), yuv420p(progressive), 1920x1080, 203448 kb/s, 60 fps, 60 tbr, 60 tbn (default)\n    Metadata:\n      handler_name    : VideoHandler\n      vendor_id       : [0][0][0][0]\n[out#0/webm @ 0000027be3239880] Codec AVOption b:a (set bitrate (in bits/s)) has not been used for any stream. The most likely reason is either wrong type (e.g. a video option with no video streams) or that it is a private option of some decoder which was not actually used for any stream.\nStream mapping:\n  Stream #0:0 -> #0:0 (h264 (native) -> vp9 (libvpx-vp9))\nPress [q] to stop, [?] for help\n[libvpx-vp9 @ 0000027be3bf1b80] v1.15.2-100-g40561f514\nOutput #0, webm, to 'C:\\Users\\Peter\\Desktop\\stuff\\MIUN\\quantitative_research\\video_compression\\compressed_videos\\BVI-HD\\vp9\\3\\Typing_1920x1080_60fps_vp9.webm':\n  Metadata:\n    major_brand     : isom\n    minor_version   : 512\n    compatible_brands: isomiso2avc1mp41\n    encoder         : Lavf62.3.100\n  Stream #0:0(und): Video: vp9, yuv420p(tv, progressive), 1920x1080, q=2-31, 3000 kb/s, 60 fps, 1k tbn (default)\n    Metadata:\n      encoder         : Lavc62.11.100 libvpx-vp9\n      handler_name    : VideoHandler\n      vendor_id       : [0][0][0][0]\n    Side data:\n      cpb: bitrate max/min/avg: 0/0/0 buffer size: 3000000 vbv_delay: N/A\nframe=    0 fps=0.0 q=0.0 size=       0KiB time=N/A bitrate=N/A speed=N/A elapsed=0:00:00.51    \nframe=    3 fps=2.8 q=57.0 size=       1KiB time=00:00:00.05 bitrate= 101.3kbits/s speed=0.0464x elapsed=0:00:01.07    \nframe=    9 fps=5.7 q=36.0 size=       1KiB time=00:00:00.15 bitrate=  33.8kbits/s speed=0.0944x elapsed=0:00:01.58    \nframe=   12 fps=5.7 q=36.0 size=       1KiB time=00:00:00.20 bitrate=  25.3kbits/s speed=0.095x elapsed=0:00:02.10    \nframe=   16 fps=6.1 q=35.0 size=       1KiB time=00:00:00.26 bitrate=  19.0kbits/s speed=0.101x elapsed=0:00:02.63    \nframe=   21 fps=6.6 q=34.0 size=       1KiB time=00:00:00.35 bitrate=  14.5kbits/s speed=0.11x elapsed=0:00:03.18    \nframe=   24 fps=6.5 q=35.0 size=       1KiB time=00:00:00.40 bitrate=  12.7kbits/s speed=0.108x elapsed=0:00:03.70    \nframe=   28 fps=6.6 q=35.0 size=       1KiB time=00:00:00.46 bitrate=  10.9kbits/s speed=0.11x elapsed=0:00:04.23    \nframe=   32 fps=6.7 q=34.0 size=       1KiB time=00:00:00.53 bitrate=   9.5kbits/s speed=0.112x elapsed=0:00:04.76    \nframe=   36 fps=6.8 q=33.0 size=       1KiB time=00:00:00.60 bitrate=   8.4kbits/s speed=0.113x elapsed=0:00:05.29    \nframe=   39 fps=6.7 q=34.0 size=       1KiB time=00:00:00.65 bitrate=   7.8kbits/s speed=0.111x elapsed=0:00:05.84    \nframe=   44 fps=6.9 q=33.0 size=       1KiB time=00:00:00.73 bitrate=   6.9kbits/s speed=0.115x elapsed=0:00:06.37    \nframe=   48 fps=6.9 q=32.0 size=       1KiB time=00:00:00.80 bitrate=   6.3kbits/s speed=0.115x elapsed=0:00:06.93    \nframe=   51 fps=6.8 q=30.0 size=       1KiB time=00:00:00.85 bitrate=   6.0kbits/s speed=0.113x elapsed=0:00:07.51    \nframe=   57 fps=7.1 q=31.0 size=       1KiB time=00:00:00.93 bitrate=   5.4kbits/s speed=0.116x elapsed=0:00:08.02    \nframe=   60 fps=7.0 q=31.0 size=       1KiB time=00:00:01.00 bitrate=   5.1kbits/s speed=0.117x elapsed=0:00:08.58    \nframe=   65 fps=7.1 q=30.0 size=       1KiB time=00:00:01.08 bitrate=   4.7kbits/s speed=0.119x elapsed=0:00:09.13    \nframe=   69 fps=7.1 q=32.0 size=       1KiB time=00:00:01.15 bitrate=   4.4kbits/s speed=0.119x elapsed=0:00:09.69    \nframe=   73 fps=7.1 q=15.0 size=       1KiB time=00:00:01.21 bitrate=   4.2kbits/s speed=0.119x elapsed=0:00:10.21    \nframe=   78 fps=7.3 q=33.0 size=       1KiB time=00:00:01.30 bitrate=   3.9kbits/s speed=0.121x elapsed=0:00:10.72    \nframe=   83 fps=7.4 q=33.0 size=       1KiB time=00:00:01.38 bitrate=   3.7kbits/s speed=0.123x elapsed=0:00:11.25    \nframe=   86 fps=7.3 q=34.0 size=       1KiB time=00:00:01.43 bitrate=   3.5kbits/s speed=0.121x elapsed=0:00:11.81    \nframe=   92 fps=7.4 q=34.0 size=       1KiB time=00:00:01.53 bitrate=   3.3kbits/s speed=0.124x elapsed=0:00:12.35    \nframe=   96 fps=7.5 q=33.0 size=       1KiB time=00:00:01.60 bitrate=   3.2kbits/s speed=0.124x elapsed=0:00:12.88    \nframe=  100 fps=7.4 q=33.0 size=       1KiB time=00:00:01.66 bitrate=   3.0kbits/s speed=0.124x elapsed=0:00:13.43    \nframe=  105 fps=7.5 q=36.0 size=       1KiB time=00:00:01.73 bitrate=   2.9kbits/s speed=0.124x elapsed=0:00:13.94    \nframe=  108 fps=7.5 q=33.0 size=       1KiB time=00:00:01.80 bitrate=   2.8kbits/s speed=0.124x elapsed=0:00:14.47    \nframe=  113 fps=7.5 q=36.0 size=       1KiB time=00:00:01.88 bitrate=   2.7kbits/s speed=0.125x elapsed=0:00:15.03    \nframe=  118 fps=7.6 q=35.0 size=       1KiB time=00:00:01.96 bitrate=   2.6kbits/s speed=0.126x elapsed=0:00:15.55    \nframe=  123 fps=7.7 q=31.0 size=       1KiB time=00:00:02.05 bitrate=   2.5kbits/s speed=0.128x elapsed=0:00:16.07    \nframe=  128 fps=7.7 q=35.0 size=       1KiB time=00:00:02.13 bitrate=   2.4kbits/s speed=0.128x elapsed=0:00:16.60    \nframe=  134 fps=7.8 q=36.0 size=     512KiB time=00:00:02.23 bitrate=1878.0kbits/s speed=0.13x elapsed=0:00:17.13    \nframe=  139 fps=7.9 q=35.0 size=     512KiB time=00:00:02.31 bitrate=1810.5kbits/s speed=0.131x elapsed=0:00:17.68    \nframe=  145 fps=8.0 q=29.0 size=     512KiB time=00:00:02.41 bitrate=1735.6kbits/s speed=0.133x elapsed=0:00:18.23    \nframe=  151 fps=8.0 q=31.0 size=     512KiB time=00:00:02.51 bitrate=1666.6kbits/s speed=0.134x elapsed=0:00:18.77    \nframe=  153 fps=7.9 q=28.0 size=     512KiB time=00:00:02.55 bitrate=1644.8kbits/s speed=0.132x elapsed=0:00:19.28    \nframe=  156 fps=7.9 q=28.0 size=     512KiB time=00:00:02.60 bitrate=1613.2kbits/s speed=0.131x elapsed=0:00:19.83    \nframe=  159 fps=7.8 q=27.0 size=     512KiB time=00:00:02.65 bitrate=1582.8kbits/s speed=0.13x elapsed=0:00:20.35    \nframe=  163 fps=7.8 q=26.0 size=     512KiB time=00:00:02.71 bitrate=1543.9kbits/s speed=0.13x elapsed=0:00:20.88    \nframe=  166 fps=7.7 q=26.0 size=     512KiB time=00:00:02.76 bitrate=1516.0kbits/s speed=0.129x elapsed=0:00:21.44    \nframe=  171 fps=7.8 q=26.0 size=     512KiB time=00:00:02.85 bitrate=1471.7kbits/s speed=0.13x elapsed=0:00:21.98    \nframe=  175 fps=7.8 q=26.0 size=     512KiB time=00:00:02.91 bitrate=1438.0kbits/s speed=0.129x elapsed=0:00:22.53    \nframe=  180 fps=7.8 q=26.0 size=     512KiB time=00:00:02.98 bitrate=1405.9kbits/s speed=0.129x elapsed=0:00:23.08    \nframe=  184 fps=7.8 q=29.0 size=     512KiB time=00:00:03.06 bitrate=1367.7kbits/s speed=0.13x elapsed=0:00:23.63    \nframe=  188 fps=7.8 q=14.0 size=     512KiB time=00:00:03.11 bitrate=1345.8kbits/s speed=0.129x elapsed=0:00:24.19    \nframe=  194 fps=7.8 q=32.0 size=     512KiB time=00:00:03.23 bitrate=1297.2kbits/s speed=0.13x elapsed=0:00:24.77    \nframe=  198 fps=7.8 q=31.0 size=     512KiB time=00:00:03.30 bitrate=1271.0kbits/s speed=0.13x elapsed=0:00:25.39    \nframe=  201 fps=7.7 q=33.0 size=     512KiB time=00:00:03.35 bitrate=1252.0kbits/s speed=0.129x elapsed=0:00:25.96    \nframe=  206 fps=7.8 q=31.0 size=     512KiB time=00:00:03.43 bitrate=1221.6kbits/s speed=0.13x elapsed=0:00:26.47    \nframe=  211 fps=7.8 q=31.0 size=     512KiB time=00:00:03.51 bitrate=1192.7kbits/s speed=0.13x elapsed=0:00:27.00    \nframe=  214 fps=7.8 q=32.0 size=     512KiB time=00:00:03.56 bitrate=1176.0kbits/s speed=0.13x elapsed=0:00:27.52    \nframe=  219 fps=7.8 q=31.0 size=     512KiB time=00:00:03.65 bitrate=1149.1kbits/s speed=0.13x elapsed=0:00:28.04    \nframe=  223 fps=7.8 q=33.0 size=     512KiB time=00:00:03.71 bitrate=1128.5kbits/s speed=0.13x elapsed=0:00:28.56    \nframe=  228 fps=7.8 q=29.0 size=     512KiB time=00:00:03.78 bitrate=1108.6kbits/s speed=0.13x elapsed=0:00:29.11    \nframe=  233 fps=7.9 q=31.0 size=     512KiB time=00:00:03.88 bitrate=1080.1kbits/s speed=0.131x elapsed=0:00:29.67    \nframe=  235 fps=7.8 q=30.0 size=     512KiB time=00:00:03.91 bitrate=1070.9kbits/s speed=0.13x elapsed=0:00:30.21    \nframe=  239 fps=7.8 q=32.0 size=     512KiB time=00:00:03.98 bitrate=1053.0kbits/s speed=0.13x elapsed=0:00:30.75    \nframe=  243 fps=7.8 q=30.0 size=     512KiB time=00:00:04.05 bitrate=1035.6kbits/s speed=0.129x elapsed=0:00:31.28    \nframe=  245 fps=7.7 q=32.0 size=     512KiB time=00:00:04.08 bitrate=1027.2kbits/s speed=0.128x elapsed=0:00:31.82    \nframe=  250 fps=7.7 q=31.0 size=     512KiB time=00:00:04.16 bitrate=1006.6kbits/s speed=0.129x elapsed=0:00:32.34    \nframe=  254 fps=7.7 q=32.0 size=     512KiB time=00:00:04.23 bitrate= 990.8kbits/s speed=0.129x elapsed=0:00:32.85    \nframe=  258 fps=7.7 q=31.0 size=    1536KiB time=00:00:04.28 bitrate=2937.6kbits/s speed=0.128x elapsed=0:00:33.37    \nframe=  262 fps=7.7 q=32.0 size=    1536KiB time=00:00:04.36 bitrate=2881.6kbits/s speed=0.129x elapsed=0:00:33.94    \nframe=  268 fps=7.8 q=32.0 size=    1536KiB time=00:00:04.46 bitrate=2817.1kbits/s speed=0.13x elapsed=0:00:34.46    \nframe=  272 fps=7.8 q=31.0 size=    1536KiB time=00:00:04.53 bitrate=2775.6kbits/s speed=0.13x elapsed=0:00:34.98    \nframe=  276 fps=7.8 q=32.0 size=    1536KiB time=00:00:04.60 bitrate=2735.4kbits/s speed=0.129x elapsed=0:00:35.52    \nframe=  276 fps=7.7 q=32.0 size=    1536KiB time=00:00:04.60 bitrate=2735.4kbits/s speed=0.128x elapsed=0:00:36.07    \nframe=  276 fps=7.5 q=32.0 size=    1536KiB time=00:00:04.60 bitrate=2735.4kbits/s speed=0.125x elapsed=0:00:36.65    \nframe=  276 fps=7.4 q=32.0 size=    1536KiB time=00:00:04.60 bitrate=2735.4kbits/s speed=0.124x elapsed=0:00:37.22    \nframe=  276 fps=7.3 q=32.0 size=    1536KiB time=00:00:04.60 bitrate=2735.4kbits/s speed=0.122x elapsed=0:00:37.75    \nframe=  276 fps=7.2 q=32.0 size=    1536KiB time=00:00:04.60 bitrate=2735.4kbits/s speed=0.12x elapsed=0:00:38.30    \n[out#0/webm @ 0000027be3239880] video:1901KiB audio:0KiB subtitle:0KiB other streams:0KiB global headers:0KiB muxing overhead: 0.146289%\nframe=  300 fps=7.8 q=33.0 Lsize=    1904KiB time=00:00:05.00 bitrate=3119.5kbits/s speed=0.13x elapsed=0:00:38.58    \n",
  "seconds": 39.00002360343933,
  "probe_out": {}
}